HIERARCHY
ROOT Pelvis
{
	OFFSET 0.000000 0.000000 0.000000
	CHANNELS 6 Xposition Yposition Zposition Zrotation Yrotation Xrotation 
	JOINT Left_hip
	{
		OFFSET 0.070241 -0.085575 -0.010474
		CHANNELS 3 Zrotation Yrotation Xrotation
		JOINT Left_knee
		{
			OFFSET 0.032125 -0.356873 -0.000555
			CHANNELS 3 Zrotation Yrotation Xrotation
			JOINT Left_ankle
			{
				OFFSET -0.010961 -0.370212 -0.042278
				CHANNELS 3 Zrotation Yrotation Xrotation
				JOINT Left_foot
				{
					OFFSET 0.023322 -0.052281 0.110104
					CHANNELS 3 Zrotation Yrotation Xrotation
					End Site
					{
						OFFSET 0.000000 0.000000 0.000000
					}
				}
			}
		}
	}
	JOINT Right_hip
	{
		OFFSET -0.068518 -0.084320 -0.007402
		CHANNELS 3 Zrotation Yrotation Xrotation
		JOINT Right_knee
		{
			OFFSET -0.037345 -0.364815 -0.003619
			CHANNELS 3 Zrotation Yrotation Xrotation
			JOINT Right_ankle
			{
				OFFSET 0.013394 -0.370006 -0.039954
				CHANNELS 3 Zrotation Yrotation Xrotation
				JOINT Right_foot
				{
					OFFSET -0.019600 -0.045455 0.113223
					CHANNELS 3 Zrotation Yrotation Xrotation
					End Site
					{
						OFFSET 0.000000 0.000000 0.000000
					}
				}
			}
		}
	}
	JOINT Spine1
	{
		OFFSET -0.002404 0.098129 -0.018169
		CHANNELS 3 Zrotation Yrotation Xrotation
		JOINT Spine2
		{
			OFFSET 0.003989 0.127209 -0.001742
			CHANNELS 3 Zrotation Yrotation Xrotation
			JOINT Spine3
			{
				OFFSET 0.001758 0.046641 0.023475
				CHANNELS 3 Zrotation Yrotation Xrotation
				JOINT Neck
				{
					OFFSET -0.003759 0.194901 -0.039982
					CHANNELS 3 Zrotation Yrotation Xrotation
					JOINT Head
					{
						OFFSET 0.003999 0.063756 0.047665
						CHANNELS 3 Zrotation Yrotation Xrotation
						End Site
						{
							OFFSET 0.000000 0.000000 0.000000
						}
					}
				}
				JOINT Left_collar
				{
					OFFSET 0.071816 0.109048 -0.028973
					CHANNELS 3 Zrotation Yrotation Xrotation
					JOINT Left_shoulder
					{
						OFFSET 0.084027 0.032269 -0.006525
						CHANNELS 3 Zrotation Yrotation Xrotation
						JOINT Left_elbow
						{
							OFFSET 0.243854 -0.013992 -0.025905
							CHANNELS 3 Zrotation Yrotation Xrotation
							JOINT Left_wrist
							{
								OFFSET 0.232156 0.008196 -0.000339
								CHANNELS 3 Zrotation Yrotation Xrotation
								JOINT Left_palm
								{
									OFFSET 0.075377 -0.009461 -0.012494
									CHANNELS 3 Zrotation Yrotation Xrotation
									End Site
									{
										OFFSET 0.000000 0.000000 0.000000
									}
								}
							}
						}
					}
				}
				JOINT Right_collar
				{
					OFFSET -0.073768 0.107001 -0.033755
					CHANNELS 3 Zrotation Yrotation Xrotation
					JOINT Right_shoulder
					{
						OFFSET -0.086837 0.032868 -0.009431
						CHANNELS 3 Zrotation Yrotation Xrotation
						JOINT Right_elbow
						{
							OFFSET -0.236446 -0.012544 -0.018747
							CHANNELS 3 Zrotation Yrotation Xrotation
							JOINT Right_wrist
							{
								OFFSET -0.236110 0.006124 -0.004327
								CHANNELS 3 Zrotation Yrotation Xrotation
								JOINT Right_palm
								{
									OFFSET -0.074800 -0.006875 -0.009610
									CHANNELS 3 Zrotation Yrotation Xrotation
									End Site
									{
										OFFSET 0.000000 0.000000 0.000000
									}
								}
							}
						}
					}
				}
			}
		}
	}
}
MOTION
Frames: 6
Frame Time: 0.100000
0.204763 0.321147 -0.290954 174.843141 1.974112 -57.526638 7.684574 -3.882411 -33.855750 -2.308126 7.746237 43.499939 0.255073 9.270213 29.427718 3.360376 11.118156 -20.905476 2.716164 4.441858 -13.116352 3.242356 3.124278 30.770407 18.222098 -2.000756 17.890689 -25.842993 -3.395327 -8.934429 -2.212530 8.011278 27.445645 2.607075 -1.599493 15.813923 3.958521 4.585598 6.240617 -2.866131 -3.680127 20.281266 14.175364 1.540163 -16.062879 -5.391797 -6.124645 9.422221 -67.418436 27.939543 9.400296 -12.348611 -50.998246 46.504348 27.033578 -9.540127 -22.061516 -7.708737 2.939764 2.263147 8.024108 24.922568 6.870789 49.074438 21.568062 10.547760 156.715046 76.504163 173.507746 -31.224688 22.115390 -16.806581 12.411394 -10.743299 2.792385 
0.196867 0.320885 -0.284697 172.601070 7.144292 -56.839139 9.545154 -4.724284 -34.782648 -4.420380 3.136669 50.260854 -0.213859 8.479941 30.741271 1.694113 11.409138 -24.523979 1.897127 8.719285 -15.989477 9.394541 11.299474 39.964035 15.912186 4.825219 9.382692 -20.862272 -3.759119 -7.460866 -2.520474 6.536599 25.581352 3.931434 -3.246330 17.226182 3.822169 2.352204 5.063816 1.132986 1.338180 21.537692 17.631660 8.367218 -12.758966 -12.430101 -1.659168 10.454977 -53.781603 28.118282 15.740369 -29.445292 -51.398721 58.278193 36.860487 -12.502572 -34.152287 -10.914331 3.269892 4.031929 10.617154 8.781199 6.336465 47.425211 1.383797 5.786945 175.104591 73.380805 -174.884208 -40.523639 19.722883 -33.238621 17.551270 -10.364996 4.588265 
0.189037 0.320961 -0.275325 170.692636 13.080298 -56.523537 10.197010 -3.431891 -33.572449 -5.351073 2.011896 52.482360 0.416288 8.236388 32.064476 -2.198745 10.916798 -28.588387 1.799396 11.669376 -17.389722 13.757402 17.482061 47.914223 13.120110 7.376351 4.104680 -17.369416 -2.491962 -5.349733 -1.935694 4.929170 24.118987 4.482576 -4.107690 18.229599 3.308302 0.698094 4.586278 3.622455 4.172918 21.847147 18.559162 9.734348 -12.439200 -15.711698 1.073979 11.077025 -46.592160 26.152703 17.448131 -36.355447 -50.051288 63.218416 38.775588 -14.281185 -35.842917 -13.392888 1.936614 3.382859 11.546069 -4.627364 6.772312 53.919574 -17.853842 0.923685 -174.614375 83.543729 -162.342304 -41.909424 16.690750 -32.742936 22.243976 -7.238419 3.379220 
0.179226 0.320506 -0.266193 169.761621 19.410485 -56.546259 9.411541 -1.768514 -30.154020 -5.589351 1.607059 49.564038 1.843043 10.919192 27.568238 -1.668978 9.325510 -27.310619 0.217982 10.160669 -19.116923 9.091074 14.128955 53.976284 8.430863 -1.344791 2.887792 -13.535358 -0.011312 -3.368759 -1.968213 2.878748 23.976812 4.704140 -4.518338 17.152819 2.569137 -1.095111 5.188857 5.019356 5.007565 21.978363 16.517576 8.733361 -12.355851 -16.706362 6.473349 9.912158 -44.958613 21.740306 15.244453 -33.390129 -53.091293 56.900134 35.969046 -14.232792 -30.762440 -16.962678 -0.488353 2.449777 12.708392 -15.454245 6.623098 61.348395 -31.222448 -1.139344 29.046849 84.804700 46.035558 -36.485049 13.988852 -29.199284 25.115679 -2.221357 3.737540 
0.169449 0.319308 -0.265477 170.038738 22.686907 -56.746054 9.769722 0.280254 -26.247813 -5.022811 1.087186 45.122312 1.033792 13.278563 24.886041 2.228523 8.879632 -26.459130 0.411061 7.625336 -21.882266 2.629287 6.591390 58.217041 4.058924 -9.454974 6.636973 -11.316580 1.038869 -3.244802 -2.271413 0.894686 25.699809 4.582080 -3.956057 15.852358 2.080535 -1.904363 5.901420 8.812333 6.116753 20.448100 14.210771 6.641164 -12.102334 -18.291831 10.715510 6.265178 -51.486853 13.117378 11.017393 -10.280639 -61.628038 28.422790 41.941018 -10.868351 -26.133255 -19.281196 -1.370374 4.064554 14.434556 -19.337525 6.637403 68.925819 -34.256873 0.149665 17.385397 76.581489 40.791299 -39.510966 12.344681 -22.658581 24.716315 1.413622 6.887607 
0.158226 0.317905 -0.267314 170.026507 23.756309 -56.274173 10.159431 3.082469 -26.309096 -4.287465 5.125790 45.348028 -0.912063 12.770744 23.337986 4.247833 9.705493 -27.486042 2.273920 7.608881 -23.437972 4.730504 4.639816 53.493996 4.815023 -5.282106 10.332883 -12.948262 0.110542 -5.065710 -2.133833 -0.184492 26.821386 4.192808 -4.554907 16.432413 1.963000 -2.324678 4.193587 11.577008 7.490410 18.530371 13.808328 5.354227 -11.572783 -20.048657 6.953670 4.105007 -59.315341 0.928956 10.923603 22.462475 -60.390388 -6.494311 49.504569 -9.483526 -24.248687 -18.240663 -0.969199 3.322233 14.596072 -15.885895 5.777096 75.859536 -27.228444 1.347230 -18.125172 64.270753 5.502663 -47.953871 9.923628 -21.949199 22.585461 2.367157 8.402015 
